<svg viewBox="0 0 1920 400" width="1920" height="400" xmlns="http://www.w3.org/2000/svg" xmlns:xlink="http://www.w3.org/1999/xlink" version="1.1"><path d="M0 156L45.7 147.7C91.3 139.3 182.7 122.7 274.2 122.3C365.7 122 457.3 138 548.8 142C640.3 146 731.7 138 823 137.7C914.3 137.3 1005.7 144.7 1097 148C1188.3 151.3 1279.7 150.7 1371.2 140.7C1462.7 130.7 1554.3 111.3 1645.8 96.3C1737.3 81.3 1828.7 70.7 1874.3 65.3L1920 60L1920 401L1874.3 401C1828.7 401 1737.3 401 1645.8 401C1554.3 401 1462.7 401 1371.2 401C1279.7 401 1188.3 401 1097 401C1005.7 401 914.3 401 823 401C731.7 401 640.3 401 548.8 401C457.3 401 365.7 401 274.2 401C182.7 401 91.3 401 45.7 401L0 401Z" fill="#0e1a40"></path><path d="M0 194L45.7 190.2C91.3 186.3 182.7 178.7 274.2 168.7C365.7 158.7 457.3 146.3 548.8 141.5C640.3 136.7 731.7 139.3 823 136.8C914.3 134.3 1005.7 126.7 1097 131.5C1188.3 136.3 1279.7 153.7 1371.2 163.2C1462.7 172.7 1554.3 174.3 1645.8 177.7C1737.3 181 1828.7 186 1874.3 188.5L1920 191L1920 401L1874.3 401C1828.7 401 1737.3 401 1645.8 401C1554.3 401 1462.7 401 1371.2 401C1279.7 401 1188.3 401 1097 401C1005.7 401 914.3 401 823 401C731.7 401 640.3 401 548.8 401C457.3 401 365.7 401 274.2 401C182.7 401 91.3 401 45.7 401L0 401Z" fill="#131f46"></path><path d="M0 177L45.7 178.2C91.3 179.3 182.7 181.7 274.2 189.7C365.7 197.7 457.3 211.3 548.8 210.3C640.3 209.3 731.7 193.7 823 196.7C914.3 199.7 1005.7 221.3 1097 221C1188.3 220.7 1279.7 198.3 1371.2 189C1462.7 179.7 1554.3 183.3 1645.8 196.5C1737.3 209.7 1828.7 232.3 1874.3 243.7L1920 255L1920 401L1874.3 401C1828.7 401 1737.3 401 1645.8 401C1554.3 401 1462.7 401 1371.2 401C1279.7 401 1188.3 401 1097 401C1005.7 401 914.3 401 823 401C731.7 401 640.3 401 548.8 401C457.3 401 365.7 401 274.2 401C182.7 401 91.3 401 45.7 401L0 401Z" fill="#18244d"></path><path d="M0 244L45.7 244.2C91.3 244.3 182.7 244.7 274.2 250.7C365.7 256.7 457.3 268.3 548.8 278.3C640.3 288.3 731.7 296.7 823 298.8C914.3 301 1005.7 297 1097 297.5C1188.3 298 1279.7 303 1371.2 296C1462.7 289 1554.3 270 1645.8 267.5C1737.3 265 1828.7 279 1874.3 286L1920 293L1920 401L1874.3 401C1828.7 401 1737.3 401 1645.8 401C1554.3 401 1462.7 401 1371.2 401C1279.7 401 1188.3 401 1097 401C1005.7 401 914.3 401 823 401C731.7 401 640.3 401 548.8 401C457.3 401 365.7 401 274.2 401C182.7 401 91.3 401 45.7 401L0 401Z" fill="#1d2954"></path><path d="M0 343L45.7 345.5C91.3 348 182.7 353 274.2 348.8C365.7 344.7 457.3 331.3 548.8 326.8C640.3 322.3 731.7 326.7 823 332.8C914.3 339 1005.7 347 1097 348.5C1188.3 350 1279.7 345 1371.2 338C1462.7 331 1554.3 322 1645.8 325.2C1737.3 328.3 1828.7 343.7 1874.3 351.3L1920 359L1920 401L1874.3 401C1828.7 401 1737.3 401 1645.8 401C1554.3 401 1462.7 401 1371.2 401C1279.7 401 1188.3 401 1097 401C1005.7 401 914.3 401 823 401C731.7 401 640.3 401 548.8 401C457.3 401 365.7 401 274.2 401C182.7 401 91.3 401 45.7 401L0 401Z" fill="#222f5b"></path></svg>